<?xml version="1.0" standalone="no"?>
<!DOCTYPE svg PUBLIC "-//W3C//DTD SVG 20010904//EN" "http://www.w3.org/TR/2001/REC-SVG-20010904/DTD/svg10.dtd">
<svg version="1.0" xmlns="http://www.w3.org/2000/svg"
    width="512.000000pt" height="512.000000pt" viewBox="0 0 512.000000 512.000000"
    preserveAspectRatio="xMidYMid meet">

    <g transform="translate(0.000000,512.000000) scale(0.100000,-0.100000)"
        fill="#000000" stroke="none">
        <path
            d="M2370 5109 c-230 -16 -446 -61 -670 -138 -145 -50 -180 -64 -180 -72
0 -3 100 -9 223 -12 231 -5 314 -16 502 -63 675 -171 1242 -693 1470 -1354 91
-262 118 -424 118 -695 1 -269 -27 -431 -118 -695 -201 -583 -669 -1066 -1241
-1280 -272 -102 -502 -143 -779 -138 l-160 3 60 17 c227 66 323 103 525 200
231 111 381 210 570 373 103 89 275 280 363 402 102 143 219 362 172 323 -8
-7 -15 -18 -15 -25 0 -7 -36 -46 -79 -87 -156 -147 -334 -197 -534 -152 -157
36 -238 96 -325 242 -95 160 -202 261 -374 353 -163 88 -310 128 -548 148
-321 28 -444 148 -443 436 0 119 19 203 68 300 131 260 341 395 615 395 167 0
293 -43 421 -145 93 -74 196 -222 227 -327 9 -32 20 -58 23 -58 4 0 14 28 24
63 33 119 108 223 196 272 93 51 213 39 304 -31 25 -19 45 -32 45 -30 0 3 -12
38 -26 78 -31 85 -83 191 -130 266 -19 29 -34 55 -34 57 0 8 -48 62 -130 148
-238 250 -518 370 -860 369 -403 -1 -771 -174 -1096 -515 -117 -123 -191 -224
-286 -389 -163 -285 -243 -564 -255 -898 -13 -349 55 -617 260 -1023 142 -282
285 -476 524 -708 208 -203 385 -326 658 -459 88 -43 207 -94 265 -115 462
-162 1001 -183 1486 -60 176 45 297 91 489 185 274 135 482 287 705 516 233
239 376 454 529 792 66 147 122 343 162 567 22 117 24 159 24 425 0 320 -6
372 -65 616 -44 179 -89 299 -183 489 -145 290 -295 495 -530 722 -223 215
-445 366 -724 492 -292 132 -561 198 -898 221 -166 11 -180 11 -345 -1z m1566
-928 c-10 -16 -36 -13 -43 5 -8 22 18 37 36 20 7 -8 10 -19 7 -25z m318 -1143
c13 -19 14 -25 2 -43 -16 -24 -51 -31 -72 -15 -14 13 -19 61 -7 73 15 16 62 6
77 -15z m598 -362 c18 -27 -8 -76 -40 -76 -22 0 -52 30 -52 51 0 40 70 59 92
25z m-224 -343 c-16 -15 -18 -15 -24 0 -3 9 -3 25 0 34 6 15 8 15 24 0 15 -16
15 -18 0 -34z m-3300 -421 c4 -25 -19 -30 -37 -9 -8 10 -7 17 1 25 17 17 32
10 36 -16z m2951 -48 c56 -72 -15 -171 -95 -132 -95 46 -73 158 30 158 36 0
48 -5 65 -26z m89 -171 c-5 -26 -38 -29 -38 -4 0 15 6 21 21 21 14 0 19 -5 17
-17z m-1494 -99 c7 -19 -1 -34 -19 -34 -18 0 -28 17 -21 35 7 20 32 19 40 -1z
m-1709 -159 c0 -23 -5 -31 -22 -33 -14 -2 -26 4 -32 17 -16 30 -3 53 28 49 22
-2 26 -8 26 -33z m823 -438 c2 -12 -3 -17 -17 -17 -15 0 -21 6 -21 21 0 25 33
22 38 -4z m1312 -12 c0 -9 -7 -18 -16 -22 -18 -7 -39 11 -30 26 11 17 46 13
46 -4z m-315 -665 c0 -8 -10 -16 -22 -18 -22 -3 -32 16 -16 32 12 11 38 2 38
-14z" />
        <path
            d="M1544 3137 c-54 -21 -103 -60 -120 -99 -24 -54 -16 -164 15 -210 35
-50 84 -80 141 -86 73 -7 112 4 160 45 50 43 79 102 80 160 0 54 -11 82 -52
128 -58 67 -147 91 -224 62z" />
        <path
            d="M2548 3133 c-58 -36 -91 -146 -69 -230 13 -49 50 -96 91 -117 27 -13
33 -13 69 5 55 26 83 76 89 158 3 54 0 77 -16 114 -34 76 -105 106 -164 70z" />
        <path
            d="M2241 2658 c-5 -13 -23 -32 -40 -43 -17 -11 -31 -24 -31 -28 0 -4 21
-29 48 -55 l47 -47 46 48 46 48 -32 24 c-17 14 -37 36 -45 50 -17 31 -28 32
-39 3z" />
    </g>
</svg>