<?xml version="1.0" encoding="UTF-8"?>
<svg id="Layer_2" data-name="Layer 2" xmlns="http://www.w3.org/2000/svg" viewBox="0 0 750 750">
  <defs>
    <style>
      .cls-1 {
        stroke-width: 0px;
      }
    </style>
  </defs>
  <g id="Layer_4" data-name="Layer 4">
    <g>
      <path class="cls-1" d="m749.88,366.24c-.88-34.71-8.12-131.2-78.72-221.69-15.02-19.26-64.51-78.74-152.27-115.32C451.9,1.31,393.32-.47,366.21.07c-65.22,1.3-115.77,19.32-144.73,32.14,33.66-1.58,61.78,1.8,82.25,5.63,33.11,6.19,56.73,15.52,62.48,17.84,12.06,4.87,33.45,14.39,57.67,30.75,28.48,19.24,48.66,39.68,61.52,54.5,12.56,14.48,34.39,42.3,51.66,82.51,15.02,34.97,19.98,63.89,21.44,73.23,1.29,8.32,5.06,34.92,2.48,69.57-1.87,25.08-6.29,44.11-8.28,52.02-2.14,8.55-7.95,30.12-20.2,56.16-10.4,22.11-21.35,38.77-28.69,49.04-5.6,7.85-14.52,19.57-26.84,32.68-15.68,16.68-30,28.29-38.64,34.86-18.38,13.99-34.21,22.79-41.71,26.76-4.18,2.22-15.31,7.99-30.42,14.02-7.17,2.86-17.49,6.68-30.19,10.34-6.86,1.98-18.97,5.43-35.16,8.05-17.55,2.84-31.07,3.28-42.71,3.61-13.85.4-25.61.03-34.46-.47,7.69-2.02,17.18-4.71,27.95-8.26,17.45-5.74,31.3-11.41,40.11-15.22,9.04-3.91,23.96-10.42,42.55-21.03,17.02-9.72,29.01-18.24,31.91-20.32,15.35-11.01,26.44-20.87,31.84-25.84,15.13-13.92,25.19-25.79,31.72-33.54,9.11-10.82,17.42-20.68,26.42-35.36,8.12-13.23,13.59-25.13,17.19-33.98-4.78,7.24-14.07,19.16-29.69,28.6-5.78,3.49-19.92,11.82-40.23,13.05-19.18,1.17-33.4-4.63-37.25-6.3-4.14-1.8-12.43-5.48-20.63-13.28-6.61-6.29-8.97-11.27-14.36-19.49,0,0-10.13-15.47-22.36-28.24-17.27-18.02-37.16-25.8-50.1-30.86-7.8-3.05-20.91-8.08-38.57-10.31-11.01-1.39-21.16-1.36-39.75-4.91-8.08-1.54-12.56-2.77-17.49-4.94-5.32-2.34-15.03-6.75-21.98-16.82-3.27-4.74-4.84-9.16-5.88-12.14,0,0-2.65-7.6-3.27-16.92-2.12-31.82,10.8-57.39,10.8-57.39,3.9-7.72,18.03-34.64,50.54-48.39,26.67-11.28,50.75-7.37,60.46-5.17,7.22,1.64,23.69,6.22,40.04,19.27,17.33,13.83,25.45,29.94,29.61,38.42,3.47,7.08,5.71,13.37,7.14,18.05,3.71-24.53,17.32-44.51,35.81-50.81,12.59-4.29,24.99-1.66,24.99-1.66,12.03,2.55,19.74,9.25,22.84,12.27-7.45-23.05-21.35-53.75-47.82-81.34-17.27-18-33.16-27.65-36.86-29.85-6.17-3.67-27.87-16.03-59.33-21.36-7.02-1.19-41.03-6.51-83.3,5.36-29.13,8.18-48.89,20.79-60.38,28.25-52.78,34.27-78.97,79.36-88.89,96.89C10.03,308.22,3.6,351.8,1.85,366.24c-1.5,12.44-5.44,52,6.34,101.38,11.23,47.07,30.99,78.99,43.96,99.56,16.42,26.03,56.5,87.91,136.48,133.48,74.7,42.56,144.88,48.47,177.57,49.23,31.29.73,121.04-1.09,212.1-59.39,67.48-43.2,103.64-96.9,117.76-120.14,50.96-83.86,54.78-165.71,53.81-204.13Zm-332.3,147.88c2.36,0,4.27,1.91,4.27,4.27s-1.91,4.27-4.27,4.27-4.27-1.91-4.27-4.27,1.91-4.27,4.27-4.27Zm-130.07,86.76c1.89,0,3.43,1.53,3.43,3.42s-1.53,3.42-3.43,3.42-3.43-1.53-3.43-3.42,1.53-3.42,3.43-3.42Zm-122.68-55.62c-2.71,0-4.91-2.19-4.91-4.9s2.2-4.9,4.91-4.9,4.91,2.19,4.91,4.9-2.2,4.9-4.91,4.9Zm25.66-71.62c-1.92,0-3.48-1.56-3.48-3.48s1.56-3.48,3.48-3.48,3.48,1.56,3.48,3.48-1.56,3.48-3.48,3.48Zm242.95,233.9c-2.02,0-3.66-1.64-3.66-3.66s1.64-3.66,3.66-3.66,3.66,1.64,3.66,3.66-1.64,3.66-3.66,3.66Zm46.13-96.62c-2.17,0-3.92-1.75-3.92-3.92s1.76-3.92,3.92-3.92,3.92,1.75,3.92,3.92-1.76,3.92-3.92,3.92Zm93.84-471.86c-2.06,0-3.73-1.67-3.73-3.72s1.67-3.72,3.73-3.72,3.73,1.67,3.73,3.72-1.67,3.72-3.73,3.72Zm44.54,162.08c3.82,0,6.92,3.1,6.92,6.92s-3.1,6.92-6.92,6.92-6.92-3.1-6.92-6.92,3.1-6.92,6.92-6.92Zm-.89,198.43c-7.59,0-13.75-6.15-13.75-13.74s6.16-13.74,13.75-13.74,13.75,6.15,13.75,13.74-6.16,13.74-13.75,13.74Zm20.6,6.38c-1.74,0-3.15-1.41-3.15-3.14s1.41-3.14,3.15-3.14,3.15,1.41,3.15,3.14-1.41,3.14-3.15,3.14Zm39.55-95.69c-2.29,0-4.15-1.86-4.15-4.14s1.86-4.14,4.15-4.14,4.15,1.86,4.15,4.14-1.86,4.14-4.15,4.14Zm27.7-40.82c-3.97,0-7.19-3.22-7.19-7.19s3.22-7.19,7.19-7.19,7.19,3.22,7.19,7.19-3.22,7.19-7.19,7.19Z"/>
      <ellipse class="cls-1" cx="235.44" cy="319.02" rx="30.13" ry="30.11"/>
      <ellipse class="cls-1" cx="380.31" cy="316.22" rx="18.88" ry="27.31"/>
      <path class="cls-1" d="m330.76,352.48c-.19,1.81-1.07,8.22-6.49,13.64-5.43,5.42-11.84,6.3-13.65,6.48,6.71,6.71,13.43,13.42,20.14,20.13,6.71-6.71,13.43-13.42,20.14-20.13-1.81-.18-8.23-1.06-13.65-6.48-5.42-5.42-6.3-11.83-6.49-13.64Z"/>
    </g>
  </g>
</svg>