<svg version="1.1" xmlns="http://www.w3.org/2000/svg" xmlns:xlink="http://www.w3.org/1999/xlink" width="512.000000pt" height="512.000000pt" viewBox="0,0,256,256"><g transform="translate(51.2,51.2) scale(0.6,0.6)"><g fill="#000000" fill-rule="nonzero" stroke="none" stroke-width="1" stroke-linecap="butt" stroke-linejoin="miter" stroke-miterlimit="10" stroke-dasharray="" stroke-dashoffset="0" font-family="none" font-weight="none" font-size="none" text-anchor="none" style="mix-blend-mode: normal"><g transform="translate(-0.16157,0.10242) scale(0.5,0.5)"><g transform="translate(0,512) scale(0.1,-0.1)"><path d="M2370,5109c-230,-16 -446,-61 -670,-138c-145,-50 -180,-64 -180,-72c0,-3 100,-9 223,-12c231,-5 314,-16 502,-63c675,-171 1242,-693 1470,-1354c91,-262 118,-424 118,-695c1,-269 -27,-431 -118,-695c-201,-583 -669,-1066 -1241,-1280c-272,-102 -502,-143 -779,-138l-160,3l60,17c227,66 323,103 525,200c231,111 381,210 570,373c103,89 275,280 363,402c102,143 219,362 172,323c-8,-7 -15,-18 -15,-25c0,-7 -36,-46 -79,-87c-156,-147 -334,-197 -534,-152c-157,36 -238,96 -325,242c-95,160 -202,261 -374,353c-163,88 -310,128 -548,148c-321,28 -444,148 -443,436c0,119 19,203 68,300c131,260 341,395 615,395c167,0 293,-43 421,-145c93,-74 196,-222 227,-327c9,-32 20,-58 23,-58c4,0 14,28 24,63c33,119 108,223 196,272c93,51 213,39 304,-31c25,-19 45,-32 45,-30c0,3 -12,38 -26,78c-31,85 -83,191 -130,266c-19,29 -34,55 -34,57c0,8 -48,62 -130,148c-238,250 -518,370 -860,369c-403,-1 -771,-174 -1096,-515c-117,-123 -191,-224 -286,-389c-163,-285 -243,-564 -255,-898c-13,-349 55,-617 260,-1023c142,-282 285,-476 524,-708c208,-203 385,-326 658,-459c88,-43 207,-94 265,-115c462,-162 1001,-183 1486,-60c176,45 297,91 489,185c274,135 482,287 705,516c233,239 376,454 529,792c66,147 122,343 162,567c22,117 24,159 24,425c0,320 -6,372 -65,616c-44,179 -89,299 -183,489c-145,290 -295,495 -530,722c-223,215 -445,366 -724,492c-292,132 -561,198 -898,221c-166,11 -180,11 -345,-1zM3936,4181c-10,-16 -36,-13 -43,5c-8,22 18,37 36,20c7,-8 10,-19 7,-25zM4254,3038c13,-19 14,-25 2,-43c-16,-24 -51,-31 -72,-15c-14,13 -19,61 -7,73c15,16 62,6 77,-15zM4852,2676c18,-27 -8,-76 -40,-76c-22,0 -52,30 -52,51c0,40 70,59 92,25zM4628,2333c-16,-15 -18,-15 -24,0c-3,9 -3,25 0,34c6,15 8,15 24,0c15,-16 15,-18 0,-34zM1328,1912c4,-25 -19,-30 -37,-9c-8,10 -7,17 1,25c17,17 32,10 36,-16zM4279,1864c56,-72 -15,-171 -95,-132c-95,46 -73,158 30,158c36,0 48,-5 65,-26zM4368,1693c-5,-26 -38,-29 -38,-4c0,15 6,21 21,21c14,0 19,-5 17,-17zM2874,1594c7,-19 -1,-34 -19,-34c-18,0 -28,17 -21,35c7,20 32,19 40,-1zM1165,1435c0,-23 -5,-31 -22,-33c-14,-2 -26,4 -32,17c-16,30 -3,53 28,49c22,-2 26,-8 26,-33zM1988,997c2,-12 -3,-17 -17,-17c-15,0 -21,6 -21,21c0,25 33,22 38,-4zM3300,985c0,-9 -7,-18 -16,-22c-18,-7 -39,11 -30,26c11,17 46,13 46,-4zM2985,320c0,-8 -10,-16 -22,-18c-22,-3 -32,16 -16,32c12,11 38,2 38,-14z"></path><path d="M1544,3137c-54,-21 -103,-60 -120,-99c-24,-54 -16,-164 15,-210c35,-50 84,-80 141,-86c73,-7 112,4 160,45c50,43 79,102 80,160c0,54 -11,82 -52,128c-58,67 -147,91 -224,62z"></path><path d="M2548,3133c-58,-36 -91,-146 -69,-230c13,-49 50,-96 91,-117c27,-13 33,-13 69,5c55,26 83,76 89,158c3,54 0,77 -16,114c-34,76 -105,106 -164,70z"></path><path d="M2241,2658c-5,-13 -23,-32 -40,-43c-17,-11 -31,-24 -31,-28c0,-4 21,-29 48,-55l47,-47l46,48l46,48l-32,24c-17,14 -37,36 -45,50c-17,31 -28,32 -39,3z"></path></g></g></g></g></svg>